<?xml version="1.0" encoding="utf-8"?>
<!-- Generator: Adobe Illustrator 26.0.1, SVG Export Plug-In . SVG Version: 6.00 Build 0)  -->
<svg version="1.1" id="Layer_1" xmlns="http://www.w3.org/2000/svg" xmlns:xlink="http://www.w3.org/1999/xlink" x="0px" y="0px"
	 viewBox="0 0 42 42" style="enable-background:new 0 0 42 42;" xml:space="preserve">
<style type="text/css">
	.st0{opacity:0.15;fill-rule:evenodd;clip-rule:evenodd;fill:#E455FF;enable-background:new    ;}
	.st1{fill:#E455FF;}
</style>
<path class="st0" d="M40.6,19.8c-0.2-0.1-0.5,0-0.6,0.1l-1.8,1.8v-12c0-0.3-0.3-0.6-0.6-0.6h-4.5l1.6-1.6l0,0l1.6-1.6
	c0.3-0.3,0.5-0.8,0.5-1.3s-0.2-0.9-0.5-1.3l-1.8-1.8C34.2,1.2,33.7,1,33.3,1c-0.5,0-0.9,0.2-1.3,0.5l-1.6,1.6L28.5,5l-4.1,4.1H6.2
	V3.3c0-0.3-0.3-0.6-0.6-0.6C3.1,2.7,1,4.8,1,7.3v25v0.1c0.1,1.1,0.5,2.1,1.3,2.9c0.8,0.8,1.9,1.3,3.1,1.3h17.9L20,40
	c-0.2,0.2-0.2,0.4-0.1,0.6c0.1,0.2,0.3,0.4,0.5,0.4h20c0.3,0,0.6-0.3,0.6-0.6v-20C41,20.1,40.9,19.9,40.6,19.8z M32.8,2.4
	c0.2-0.2,0.6-0.2,0.9,0l1.8,1.8c0.2,0.2,0.2,0.6,0,0.9l-1.2,1.2l-2.7-2.7L32.8,2.4z M30.8,4.4l2.7,2.7l-1.1,1.1l-2.7-2.7L30.8,4.4z
	 M18.4,21.8l-1.7,0.6l-1.1-1.1l0.6-1.7L18.4,21.8z M35.8,30.2l-5.7,5.7c-0.1,0.1,0,0.2,0.1,0.2H36v-5.8C36,30.2,35.9,30.1,35.8,30.2
	z M16,18.5l3.5,3.5l13-13L29,5.5L16,18.5z"/>
<path class="st1" d="M36.4,29.3c-0.2-0.1-0.5,0-0.6,0.1l-6.4,6.4c-0.2,0.2-0.2,0.4-0.1,0.6c0.1,0.2,0.3,0.4,0.5,0.4h6.4
	c0.3,0,0.6-0.3,0.6-0.6v-6.4C36.8,29.6,36.6,29.3,36.4,29.3z M31.2,35.6l4.4-4.4v4.4H31.2z"/>
<path class="st1" d="M40.6,19.8c-0.2-0.1-0.5,0-0.6,0.1l-1.8,1.8v-12c0-0.3-0.3-0.6-0.6-0.6h-4.5l1.6-1.6l0,0l1.6-1.6
	c0.3-0.3,0.5-0.8,0.5-1.3s-0.2-0.9-0.5-1.3l-1.8-1.8C34.2,1.2,33.7,1,33.3,1c-0.5,0-0.9,0.2-1.3,0.5l-1.6,1.6L28.5,5l-4.1,4.1H6.2
	V3.3c0-0.3-0.3-0.6-0.6-0.6C3.1,2.7,1,4.8,1,7.3v25v0.1c0.1,1.1,0.5,2.1,1.3,2.9c0.8,0.8,1.9,1.3,3.1,1.3h17.9L20,40
	c-0.2,0.2-0.2,0.4-0.1,0.6c0.1,0.2,0.3,0.4,0.5,0.4h20c0.3,0,0.6-0.3,0.6-0.6v-20C41,20.1,40.9,19.9,40.6,19.8z M32.8,2.4
	c0.2-0.2,0.6-0.2,0.9,0l1.8,1.8c0.2,0.2,0.2,0.6,0,0.9l-1.2,1.2l-2.7-2.7L32.8,2.4z M30.8,4.4l2.7,2.7l-1.1,1.1l-2.7-2.7L30.8,4.4z
	 M39.8,27h-1.1c-0.3,0-0.6,0.3-0.6,0.6c0,0.3,0.3,0.6,0.6,0.6h1.1V30h-1.1c-0.3,0-0.6,0.3-0.6,0.6s0.3,0.6,0.6,0.6h1.1V33h-1.1
	c-0.3,0-0.6,0.3-0.6,0.6s0.3,0.6,0.6,0.6h1.1V36h-1.1c-0.3,0-0.6,0.3-0.6,0.6s0.3,0.6,0.6,0.6h1.1V40h-18l5.9-5.9
	c0.2-0.2,0.2-0.6,0-0.8c0,0-0.1,0-0.1-0.1c-0.2-0.2-0.5-0.1-0.7,0.1l-2.4,2.4H5.4c-1.8,0-3.2-1.4-3.3-3.2c0-0.1,0-0.2,0-0.3l0,0
	c0-0.1,0-0.1,0-0.2l0,0v-0.1l0,0v-0.1c0,0,0,0,0-0.1v-0.1v-0.1c0,0,0,0,0-0.1v-0.1l0,0c0,0,0-0.1,0.1-0.1l0,0c0.5-1,1.3-1.7,2.4-1.9
	l0,0h0.1l0,0h0.1l0,0h0.1l0,0c0.1,0,0.1,0,0.2,0c0.3,0,0.6-0.3,0.6-0.6V24c0-0.3-0.3-0.6-0.6-0.6S5,23.7,5,24v3.7
	c-1,0.1-1.9,0.6-2.6,1.3c-0.1,0.1-0.1,0.2-0.2,0.2V7.3c0-1.7,1.2-3.1,2.9-3.4v17.8c0,0.3,0.3,0.6,0.6,0.6c0.3,0,0.6-0.3,0.6-0.6
	V10.3h17.1L20,13.6c-0.2,0.2-0.2,0.6,0,0.8s0.6,0.2,0.8,0l4.2-4.3l0,0l3.8-3.9L31.6,9l-0.3,0.3l0,0L19.5,21.2l-2.7-2.7l2.3-2.3
	c0.2-0.2,0.2-0.6,0-0.8s-0.6-0.2-0.8,0l-2.7,2.8l0,0l0,0l0,0l0,0l0,0l0,0l0,0l0,0l-1.1,3.3l-0.8,2.2v0.1h-2c-0.3,0-0.6,0.3-0.6,0.6
	c0,0.3,0.3,0.6,0.6,0.6H28c0.3,0,0.6-0.3,0.6-0.6c0-0.3-0.3-0.6-0.6-0.6H16.1l3.6-1.3l0,0l0,0l0,0l0,0l0,0l0,0l0,0l0,0L32,10.3h5.1
	v12.6l-8.4,8.4c-0.2,0.2-0.2,0.6,0,0.8l0,0c0.1,0.1,0.2,0.1,0.4,0.1c0.1,0,0.3,0,0.4-0.1l0,0l0,0l10.3-10.4V27z M18.4,21.8l-1.7,0.6
	l-1.1-1.1l0.6-1.7L18.4,21.8z"/>
</svg>
